<svg t="1652337964767" class="icon" viewBox="0 0 1024 1024" version="1.1" xmlns="http://www.w3.org/2000/svg" p-id="34020" width="200" height="200"><path d="M512.005813 0C229.229613 0 0 229.229613 0 512.06394s229.229613 511.93606 512.005813 511.93606 511.982562-229.229613 511.982562-511.93606S794.770387 0 512.005813 0z m190.65654 475.804321a24.715598 24.715598 0 0 1-34.876197 0L536.663283 344.716324v393.577876a24.669096 24.669096 0 0 1-49.326566 0V344.716324L356.24872 475.804321a24.660958 24.660958 0 0 1-34.876196-34.876196l172.695298-172.672048a26.192023 26.192023 0 0 1 35.864356 0l172.683673 172.683673a24.715598 24.715598 0 0 1 0 34.864571z" p-id="34021" fill="#dbdbdb"></path></svg>